<svg width="32" height="32" viewBox="0 0 32 32" fill="none" xmlns="http://www.w3.org/2000/svg">
<rect width="32" height="32" rx="5" fill="url(#paint0_linear_1_4)"/>
<path d="M14.8881 8.008C17.7521 8.008 19.8801 8.728 21.2721 10.168C22.6641 11.592 23.3601 13.64 23.3601 16.312C23.3601 18.056 23.0161 19.584 22.3281 20.896C21.6561 22.192 20.6721 23.2 19.3761 23.92C18.0801 24.64 16.5121 25 14.6721 25C14.4321 25 14.1121 24.992 13.7121 24.976C13.3121 24.96 12.8961 24.952 12.4641 24.952C12.0481 24.936 11.6641 24.928 11.3121 24.928C10.7521 24.928 10.2001 24.936 9.65613 24.952C9.11213 24.952 8.67213 24.968 8.33613 25V24.52C8.88013 24.488 9.28813 24.424 9.56013 24.328C9.84813 24.232 10.0401 24.04 10.1361 23.752C10.2321 23.464 10.2801 23.032 10.2801 22.456V10.552C10.2801 9.96 10.2321 9.528 10.1361 9.256C10.0401 8.968 9.84813 8.776 9.56013 8.68C9.28813 8.568 8.88013 8.504 8.33613 8.488V8.008C8.67213 8.024 9.11213 8.048 9.65613 8.08C10.2001 8.096 10.7361 8.096 11.2641 8.08C11.8241 8.064 12.4561 8.048 13.1601 8.032C13.8641 8.016 14.4401 8.008 14.8881 8.008ZM14.2881 8.44C13.5521 8.44 13.0721 8.576 12.8481 8.848C12.6241 9.12 12.5121 9.672 12.5121 10.504V22.504C12.5121 23.336 12.6241 23.888 12.8481 24.16C13.0881 24.432 13.5761 24.568 14.3121 24.568C16.0561 24.568 17.4081 24.256 18.3681 23.632C19.3281 22.992 20.0001 22.064 20.3841 20.848C20.7681 19.632 20.9601 18.152 20.9601 16.408C20.9601 14.616 20.7441 13.136 20.3121 11.968C19.8961 10.784 19.2001 9.904 18.2241 9.328C17.2641 8.736 15.9521 8.44 14.2881 8.44Z" fill="white"/>
<defs>
<linearGradient id="paint0_linear_1_4" x1="31" y1="1.5" x2="1.5" y2="30.5" gradientUnits="userSpaceOnUse">
<stop stop-color="#24C921"/>
<stop offset="0.85" stop-color="#507AE7"/>
</linearGradient>
</defs>
</svg>
