<svg xmlns="http://www.w3.org/2000/svg" version="1.1" xmlns:xlink="http://www.w3.org/1999/xlink" xmlns:svgjs="http://svgjs.dev/svgjs" width="100%" height="100%" viewBox="0 0 1000 600"><rect width="1000" height="600" x="0" y="0" fill="#14213d"/><g><rect width="333.3333333333333" height="333.3333333333333" rx="13.333333333333334" ry="13.333333333333334" y="281.7922603231882" fill="#fca311" transform="matrix(0.4815655478235629,0,0,0.4815655478235629,0,84.03761861963095)" x="259.5701293945312"/><path d="M300.6512495968168 510.2018337728391L300.6512495968168 387.29241359982706L285.2258154437948 384.9044905191991L285.2258154437948 375.023429495911L311.10870584646347 375.023429495911Q317.2569215942872 375.023429495911 328.7024839462626 374.254902527433L328.7024839462626 374.254902527433Q340.1754936899694 373.4589281672237 345.9119985618228 373.4589281672237L345.9119985618228 373.4589281672237Q382.6640560901085 373.4589281672237 400.53230810722124 391.93102280242624Q418.4280075160653 410.4031174376288 418.4280075160653 443.80659317468906L418.4280075160653 443.80659317468906Q418.4280075160653 467.1368761463416 409.23313128606105 485.19725990557384Q400.0382550560568 503.28509105653745 383.4600304503178 513.3582838219451Q366.8543584528474 523.458923979084 345.30815594373297 523.458923979084L345.30815594373297 523.458923979084Q340.5597571742084 523.458923979084 329.11419482223295 522.6629496188748L329.11419482223295 522.6629496188748Q317.2569215942872 521.8669752586654 311.32828498031427 521.8669752586654L311.32828498031427 521.8669752586654L284.2377093414659 521.8669752586654L284.2377093414659 512.1780459774968L300.6512495968168 510.2018337728391ZM321.59360948784143 510.80567639092897Q328.51035220414315 512.3701777196163 339.37951932976006 512.3701777196163L339.37951932976006 512.3701777196163L345.30815594373297 512.3701777196163Q360.1297474786652 512.1780459774968 371.4929676554466 504.87703977695605Q382.856187832228 497.54858618468404 389.16908793043984 483.0289159587967Q395.50943542038306 468.5092457329094 395.50943542038306 447.7590175840043L395.50943542038306 447.7590175840043Q395.50943542038306 416.5238857937212 381.97787129682456 400.3299246722212Q368.4188597815347 384.13596355072116 341.16359979229827 384.13596355072116L341.16359979229827 384.13596355072116Q335.42709492044486 384.13596355072116 327.52224610181435 384.9044905191991L327.52224610181435 384.9044905191991Q324.1736643105889 385.50833313728896 321.59360948784143 385.50833313728896L321.59360948784143 385.50833313728896L321.59360948784143 510.80567639092897ZM450.43166627482634 510.2018337728391L450.43166627482634 387.29241359982706L435.0336795135357 384.9044905191991L435.0336795135357 375.023429495911L460.91656991620437 375.023429495911Q467.0373382722967 375.023429495911 478.51034801600355 374.254902527433L478.51034801600355 374.254902527433Q489.955910367979 373.4589281672237 495.69241523983237 373.4589281672237L495.69241523983237 373.4589281672237Q532.444472768118 373.4589281672237 550.3401721769621 391.93102280242624Q568.2358715858063 410.4031174376288 568.2358715858063 443.80659317468906L568.2358715858063 443.80659317468906Q568.2358715858063 467.1368761463416 559.0409953558019 485.19725990557384Q549.8461191257977 503.28509105653745 533.2404471283273 513.3582838219451Q516.634775130857 523.458923979084 495.11602001347393 523.458923979084L495.11602001347393 523.458923979084Q490.3676212439493 523.458923979084 478.89461150024255 522.6629496188748L478.89461150024255 522.6629496188748Q467.0373382722967 521.8669752586654 461.1087016583238 521.8669752586654L461.1087016583238 521.8669752586654L434.0455734112069 521.8669752586654L434.0455734112069 512.1780459774968L450.43166627482634 510.2018337728391ZM471.40147355758234 510.80567639092897Q478.31821627388405 512.3701777196163 489.187383399501 512.3701777196163L489.187383399501 512.3701777196163L495.11602001347393 512.3701777196163Q509.93761154840615 512.1780459774968 521.3008317251874 504.87703977695605Q532.6640519019688 497.54858618468404 538.9769520001807 483.0289159587967Q545.2898520983927 468.5092457329094 545.2898520983927 447.7590175840043L545.2898520983927 447.7590175840043Q545.2898520983927 416.5238857937212 531.758287974834 400.3299246722212Q518.2267238512757 384.13596355072116 490.9440164703078 384.13596355072116L490.9440164703078 384.13596355072116Q485.23495899018576 384.13596355072116 477.3301101715552 384.9044905191991L477.3301101715552 384.9044905191991Q473.9540809885985 385.50833313728896 471.40147355758234 385.50833313728896L471.40147355758234 385.50833313728896L471.40147355758234 510.80567639092897Z " fill="#e5e5e5" transform="matrix(0.4815655478235629,0,0,0.4815655478235629,0,84.03761861963095)"/><path d="M687.6766608345113 478.139455708899L687.6766608345113 392.474365971811L676.9254816401738 390.8100375200185L676.9254816401738 383.9231611677738L694.9652716406368 383.9231611677738Q699.2504391487003 383.9231611677738 707.2277375900504 383.38751522926594L707.2277375900504 383.38751522926594Q715.22416624349 382.83273907866845 719.2223805702098 382.83273907866845L719.2223805702098 382.83273907866845Q744.8377345581422 382.83273907866845 757.2915026284513 395.7073718149481Q769.76440091085 408.5820045512277 769.76440091085 431.86347266423263L769.76440091085 431.86347266423263Q769.76440091085 448.12415294036595 763.3557798608446 460.711832495302Q756.947158810839 473.3186422623277 745.3925107087397 480.3394300991994Q733.8187323945507 487.3793481481606 718.8015159042394 487.3793481481606L718.8015159042394 487.3793481481606Q715.491989212744 487.3793481481606 707.5146907713939 486.8245719975631L707.5146907713939 486.8245719975631Q699.2504391487003 486.2697958469656 695.1183133373535 486.2697958469656L695.1183133373535 486.2697958469656L676.2367940049493 486.2697958469656L676.2367940049493 479.51683097934796L687.6766608345113 478.139455708899ZM702.273012658852 478.5603203748695Q707.0938261054233 479.6507424639749 714.6693900928925 479.6507424639749L714.6693900928925 479.6507424639749L718.8015159042394 479.6507424639749Q729.1318304326063 479.51683097934796 737.0517382376878 474.4281945635227Q744.9716460427691 469.3204279356079 749.37159482337 459.2005457402261Q753.7906738160602 449.08066354484436 753.7906738160602 434.6182232051305L753.7906738160602 434.6182232051305Q753.7906738160602 412.8480418472015 744.359479255903 401.561216714356Q734.9091544836562 390.2743915815106 715.9128538787145 390.2743915815106L715.9128538787145 390.2743915815106Q711.9146395519946 390.2743915815106 706.405138470199 390.8100375200185L706.405138470199 390.8100375200185Q704.0712525952715 391.230902185989 702.273012658852 391.230902185989L702.273012658852 391.230902185989L702.273012658852 478.5603203748695ZM814.3951857158135 487.7810826020416Q797.7327709857992 487.7810826020416 788.9711338487768 476.8959919230771Q780.228626923844 466.0300314562021 780.228626923844 447.8371997590224L780.228626923844 447.8371997590224Q780.228626923844 435.8616869909525 784.7816174011613 426.7748362484074Q789.315477666389 417.66885529377276 797.522338652814 412.7141303625745Q805.7100694271493 407.75940543137625 816.1742954401433 407.75940543137625L816.1742954401433 407.75940543137625Q828.9915375401542 407.75940543137625 836.0888462253843 414.8567141166062Q843.1861549106142 421.9540228018361 843.587889364495 435.172999355728L843.587889364495 435.172999355728Q843.587889364495 443.5711624630486 842.6313787600167 447.9711112436494L842.6313787600167 447.9711112436494L795.2458434141553 447.9711112436494Q795.5136663834093 461.61095246351175 801.5779436158025 469.9517249345637Q807.6422208481957 478.273367193526 818.7951344964142 478.273367193526L818.7951344964142 478.273367193526Q824.30463557821 478.273367193526 830.2923919622449 476.28382513621085Q836.2992785583695 474.2942830788957 839.5896750377752 471.53953253799784L839.5896750377752 471.53953253799784L842.2105140940462 477.5846795583015Q838.2122997673263 481.71680536964834 830.3689128106032 484.7585090918897Q822.5255258538801 487.7810826020416 814.3951857158135 487.7810826020416L814.3951857158135 487.7810826020416ZM795.3797548987823 440.68250043752374L828.4367613895568 440.68250043752374Q828.8576260555272 437.7938384119989 828.8576260555272 434.7521346897575L828.8576260555272 434.7521346897575Q828.7237145709003 425.7991954318394 825.0698440617927 420.6340381676559Q821.4159735526852 415.4688809034724 813.572586595962 415.4688809034724L813.572586595962 415.4688809034724Q805.5761579425224 415.4688809034724 800.8318653443093 421.2653351666117Q796.0684425340067 427.04265921766137 795.3797548987823 440.68250043752374L795.3797548987823 440.68250043752374ZM889.3282264706535 487.7810826020416Q872.6466815285497 487.7810826020416 863.9041746036169 476.8959919230771Q855.161667678684 466.0300314562021 855.161667678684 447.8371997590224L855.161667678684 447.8371997590224Q855.161667678684 435.8616869909525 859.7146581560014 426.7748362484074Q864.2485184212292 417.66885529377276 872.455379407654 412.7141303625745Q880.6431101819894 407.75940543137625 891.1073361949834 407.75940543137625L891.1073361949834 407.75940543137625Q903.9245782949944 407.75940543137625 911.0218869802243 414.8567141166062Q918.1000654533647 421.9540228018361 918.5209301193352 435.172999355728L918.5209301193352 435.172999355728Q918.5209301193352 443.5711624630486 917.5644195148567 447.9711112436494L917.5644195148567 447.9711112436494L870.1788841689954 447.9711112436494Q870.4467071382493 461.61095246351175 876.5109843706426 469.9517249345637Q882.5752616030359 478.273367193526 893.7281752512542 478.273367193526L893.7281752512542 478.273367193526Q899.23767633305 478.273367193526 905.225432717085 476.28382513621085Q911.21318910112 474.2942830788957 914.5227157926154 471.53953253799784L914.5227157926154 471.53953253799784L917.1435548488862 477.5846795583015Q913.1453405221664 481.71680536964834 905.3019535654432 484.7585090918897Q897.4394363966306 487.7810826020416 889.3282264706535 487.7810826020416L889.3282264706535 487.7810826020416ZM870.3127956536224 440.68250043752374L903.3698021443969 440.68250043752374Q903.7906668103674 437.7938384119989 903.7906668103674 434.7521346897575L903.7906668103674 434.7521346897575Q903.6376251136509 425.7991954318394 900.0028848166328 420.6340381676559Q896.3490143075252 415.4688809034724 888.4864971387125 415.4688809034724L888.4864971387125 415.4688809034724Q880.5091986973624 415.4688809034724 875.7457758870598 421.2653351666117Q871.0014832888468 427.04265921766137 870.3127956536224 440.68250043752374L870.3127956536224 440.68250043752374ZM1004.8747074916477 445.3694023994681Q1004.8747074916477 457.07709219828405 1000.0538940450764 466.77610972769526Q995.2330805985051 476.4942574691961 986.280141340587 482.13767003561884Q977.3272020826688 487.7810826020416 965.351689314599 487.7810826020416L965.351689314599 487.7810826020416Q962.0421626231036 487.7810826020416 958.1969899931004 487.2263064514441Q954.3326871510075 486.6906605129361 951.9988012760801 485.8489311809951L951.9988012760801 485.8489311809951L952.400535729961 497.4227094951841L952.400535729961 511.33037368430047L966.7290645850479 512.860790651466L966.7290645850479 519.5946253069941L928.2964684971047 519.5946253069941L928.2964684971047 512.860790651466L938.2250485715907 511.33037368430047L938.2250485715907 420.42360583467064L928.1625570124777 417.9558084751163L928.1625570124777 410.5141559722741L947.7136337680168 408.02722840063024L948.0005869493604 408.02722840063024L950.8892489748852 410.5141559722741L950.8892489748852 418.64449611034075Q955.021374786232 414.0915056330235 961.143042654894 410.9350206382446Q967.2838407356454 407.75940543137625 974.8594047231146 407.75940543137625L974.8594047231146 407.75940543137625Q982.9897448611812 407.75940543137625 989.8001003650676 411.7576197580961Q996.610455868954 415.75583408481594 1000.7425816803008 424.1539971921365Q1004.8747074916477 432.5521602994571 1004.8747074916477 445.3694023994681L1004.8747074916477 445.3694023994681ZM969.2159921566919 417.40103232451884Q963.97431404415 417.40103232451884 959.4213235668327 419.6010067148192Q954.887463301605 421.8009811051196 952.400535729961 424.4218201613905L952.400535729961 424.4218201613905L952.400535729961 476.3603459845691Q953.3761765465291 478.00554422427206 957.2978700248906 479.3063986463627Q961.2195635032522 480.6263832805429 965.9064654651964 480.6263832805429L965.9064654651964 480.6263832805429Q976.5046029628174 480.6263832805429 983.0471354974499 472.2282201732223Q989.5896680320824 463.81092685381213 989.5896680320824 446.880689154544L989.5896680320824 446.880689154544Q989.5896680320824 431.9973841488596 983.8697346173013 424.708773342734Q978.1689314146099 417.40103232451884 969.2159921566919 417.40103232451884L969.2159921566919 417.40103232451884ZM1028.4431287859961 478.139455708899L1028.4431287859961 392.474365971811L1017.6919495916586 390.8100375200185L1017.6919495916586 383.9231611677738L1035.7317395921218 383.9231611677738Q1039.9977768880954 383.9231611677738 1047.9942055415354 383.38751522926594L1047.9942055415354 383.38751522926594Q1055.990634194975 382.83273907866845 1059.969718309605 382.83273907866845L1059.969718309605 382.83273907866845Q1085.6042025096272 382.83273907866845 1098.057970579936 395.7073718149481Q1110.530868862335 408.5820045512277 1110.530868862335 431.86347266423263L1110.530868862335 431.86347266423263Q1110.530868862335 448.12415294036595 1104.1222478123295 460.711832495302Q1097.713626762324 473.3186422623277 1086.1398484481351 480.3394300991994Q1074.5852003460354 487.3793481481606 1059.5679838557244 487.3793481481606L1059.5679838557244 487.3793481481606Q1056.2584571642287 487.3793481481606 1048.2620285107892 486.8245719975631L1048.2620285107892 486.8245719975631Q1039.9977768880954 486.2697958469656 1035.8656510767487 486.2697958469656L1035.8656510767487 486.2697958469656L1017.0032619564341 486.2697958469656L1017.0032619564341 479.51683097934796L1028.4431287859961 478.139455708899ZM1043.0394806103368 478.5603203748695Q1047.860294056908 479.6507424639749 1055.4358580443773 479.6507424639749L1055.4358580443773 479.6507424639749L1059.5679838557244 479.6507424639749Q1069.898298384091 479.51683097934796 1077.8182061891725 474.4281945635227Q1085.738113994254 469.3204279356079 1090.138062774855 459.2005457402261Q1094.557141767545 449.08066354484436 1094.557141767545 434.6182232051305L1094.557141767545 434.6182232051305Q1094.557141767545 412.8480418472015 1085.1068169952982 401.561216714356Q1075.6756224351411 390.2743915815106 1056.6793218301996 390.2743915815106L1056.6793218301996 390.2743915815106Q1052.6811075034793 390.2743915815106 1047.171606421684 390.8100375200185L1047.171606421684 390.8100375200185Q1044.8185903346666 391.230902185989 1043.0394806103368 391.230902185989L1043.0394806103368 391.230902185989L1043.0394806103368 478.5603203748695ZM1183.9334926500096 487.5132596327876Q1180.088320020006 487.5132596327876 1178.232689447318 486.0019728777117Q1176.3579286625404 484.4715559105462 1176.3579286625404 481.02811773442386L1176.3579286625404 481.02811773442386L1176.3579286625404 476.3603459845691Q1171.8240683973127 480.89420624979687 1164.9945826813364 484.3376444259192Q1158.1842271774503 487.7810826020416 1151.2973508252053 487.7810826020416L1151.2973508252053 487.7810826020416Q1138.4801087251944 487.7810826020416 1133.1236493401152 480.89420624979687Q1127.7480597429467 474.0073298975522 1127.7480597429467 458.1675142873894L1127.7480597429467 458.1675142873894L1127.7480597429467 418.22363144437026L1120.0385842708506 416.0236570540699L1120.0385842708506 409.95937982167663L1139.3218380571357 408.18027009734675L1139.4557495417625 408.18027009734675L1142.0765885980336 409.82546833704964L1142.0765885980336 457.07709219828405Q1142.0765885980336 465.0543906396341 1143.243531535497 469.53086026859313Q1144.4104744729607 474.0073298975522 1147.375657346844 476.14991365158386Q1150.340840220727 478.273367193526 1155.9842527871497 478.273367193526L1155.9842527871497 478.273367193526Q1161.4937538689455 478.273367193526 1166.3145673155168 475.9394813185986Q1171.135380762088 473.60559544367123 1174.7127304228375 470.42998023680286L1174.7127304228375 470.42998023680286L1174.7127304228375 418.22363144437026L1164.8032805604407 416.0236570540699L1164.8032805604407 409.95937982167663L1185.7317325864287 408.18027009734675L1185.8656440710556 408.18027009734675L1189.0412592779244 409.82546833704964L1189.0412592779244 479.249008010094L1197.3055109006177 479.249008010094L1197.1715994159908 485.4471967271142Q1193.307296573898 486.4037073315926 1190.476025184642 486.9584834821901Q1187.6638840074752 487.5132596327876 1183.9334926500096 487.5132596327876L1183.9334926500096 487.5132596327876ZM1241.2476080703568 523.4589281490869Q1223.6095525237747 523.4589281490869 1215.6896447186932 517.8729062189329Q1207.7697369136122 512.3060145008685 1207.7697369136122 502.5304761230989L1207.7697369136122 502.5304761230989Q1207.7697369136122 496.4661988907057 1211.5575189073465 491.35843226279087Q1215.345300901081 486.2697958469656 1220.586979013623 483.64895679069474L1220.586979013623 483.64895679069474Q1214.235748599886 480.07160712994545 1214.235748599886 472.07517847650576L1214.235748599886 472.07517847650576Q1214.235748599886 467.1204535453075 1217.1435408375005 462.72050476470673Q1220.0322028630253 458.3014257720164 1224.7191048249697 455.967539897089L1224.7191048249697 455.967539897089Q1217.832228472725 452.9449663869372 1214.1783579636171 447.2824236084249Q1210.5244874545097 441.63901104200215 1210.5244874545097 433.9295355699061L1210.5244874545097 433.9295355699061Q1210.5244874545097 425.9331069164664 1215.0009570834686 420.0218713807897Q1219.4774267124276 414.0915056330235 1226.8425583669118 410.9350206382446Q1234.2076900213956 407.75940543137625 1242.4719416440894 407.75940543137625L1242.4719416440894 407.75940543137625Q1256.3987360452952 407.75940543137625 1264.2421230020182 413.536729482426L1264.2421230020182 413.536729482426Q1266.3081859076915 411.4706665767526 1270.5742232036655 409.5576453677957Q1274.8402604996395 407.62549394674926 1279.6610739462108 407.62549394674926L1279.6610739462108 407.62549394674926L1284.3479759081547 407.62549394674926L1284.3479759081547 419.73491819944616L1269.1968479332163 419.73491819944616Q1272.506374624712 424.842684827361 1272.506374624712 431.5956496949787L1272.506374624712 431.5956496949787Q1272.506374624712 439.70685962095575 1268.4507696617234 445.98156918633424Q1264.376034486645 452.2562787517127 1257.1448143167886 455.6997169278351Q1249.9135941469312 459.14315510395744 1240.8267434043864 459.14315510395744L1240.8267434043864 459.14315510395744Q1234.8963776566202 459.14315510395744 1230.228605906765 457.89969131813547L1230.228605906765 457.89969131813547Q1228.296454485719 459.83184273918187 1227.0529906998972 462.16572861410924Q1225.809526914075 464.4996144890366 1225.809526914075 466.7187190914266L1225.809526914075 466.7187190914266Q1225.809526914075 471.67344402262484 1229.1190536055706 473.529074595313Q1232.4285802970658 475.3847051680011 1240.9606548890133 475.3847051680011L1240.9606548890133 475.3847051680011L1256.532647529922 475.3847051680011Q1269.885535568441 475.3847051680011 1276.3706774668049 480.49247179591595Q1282.836689153079 485.58110821174114 1282.836689153079 494.9549121356298L1282.836689153079 494.9549121356298Q1282.836689153079 502.79829909235286 1277.1932765866563 509.34083162698533Q1271.5498640202336 515.8833641616178 1261.9656277633599 519.6711461553524Q1252.4005217185754 523.4589281490869 1241.2476080703568 523.4589281490869L1241.2476080703568 523.4589281490869ZM1242.2041186748352 451.5675911164883Q1257.9100228003713 451.5675911164883 1257.9100228003713 432.9730249654276L1257.9100228003713 432.9730249654276Q1257.9100228003713 423.733132526166 1253.835287625293 419.39057438183397Q1249.7796826623044 415.06714644959146 1241.649342524238 415.06714644959146L1241.649342524238 415.06714644959146Q1234.0737785367687 415.06714644959146 1229.6738297561678 419.256662897207Q1225.2547507634777 423.4653095569121 1225.2547507634777 432.6860717840841L1225.2547507634777 432.6860717840841Q1225.2547507634777 441.3711880727482 1229.4633974231824 446.4598244885735Q1233.6720440828876 451.5675911164883 1242.2041186748352 451.5675911164883L1242.2041186748352 451.5675911164883ZM1242.4719416440894 515.4624994956473Q1249.224906511707 515.4624994956473 1255.2126628957417 513.4729574383322Q1261.2195494918665 511.48341538101704 1264.9308106372428 507.54259169056587Q1268.642071782619 503.62089821220434 1268.642071782619 498.3983503117521L1268.642071782619 498.3983503117521Q1268.642071782619 492.20016159473187 1265.3516753032131 489.36889020547574Q1262.042148611718 486.5376188162196 1252.5344332032023 486.5376188162196L1252.5344332032023 486.5376188162196L1236.273752927069 486.5376188162196Q1230.7642518452735 486.5376188162196 1227.6077668504945 485.8489311809951L1227.6077668504945 485.8489311809951Q1221.9643542840718 492.04711989801535 1221.9643542840718 499.77572558220106L1221.9643542840718 499.77572558220106Q1221.9643542840718 507.48520105429714 1226.6321260339264 511.48341538101704Q1231.3190279958708 515.4624994956473 1242.4719416440894 515.4624994956473L1242.4719416440894 515.4624994956473ZM1324.8466349017717 523.4589281490869Q1307.2085793551892 523.4589281490869 1299.2886715501081 517.8729062189329Q1291.3687637450266 512.3060145008685 1291.3687637450266 502.5304761230989L1291.3687637450266 502.5304761230989Q1291.3687637450266 496.4661988907057 1295.156545738761 491.35843226279087Q1298.9443277324958 486.2697958469656 1304.1860058450375 483.64895679069474L1304.1860058450375 483.64895679069474Q1297.8539056433901 480.07160712994545 1297.8539056433901 472.07517847650576L1297.8539056433901 472.07517847650576Q1297.8539056433901 467.1204535453075 1300.742567668915 462.72050476470673Q1303.6312296944398 458.3014257720164 1308.3181316563841 455.967539897089L1308.3181316563841 455.967539897089Q1301.4312553041395 452.9449663869372 1297.777384795032 447.2824236084249Q1294.1235142859246 441.63901104200215 1294.1235142859246 433.9295355699061L1294.1235142859246 433.9295355699061Q1294.1235142859246 425.9331069164664 1298.5999839148835 420.0218713807897Q1303.0764535438425 414.0915056330235 1310.460715410416 410.9350206382446Q1317.8258470648998 407.75940543137625 1326.0900986875936 407.75940543137625L1326.0900986875936 407.75940543137625Q1339.9977628767097 407.75940543137625 1347.841149833433 413.536729482426L1347.841149833433 413.536729482426Q1349.9072127391064 411.4706665767526 1354.1923802471697 409.5576453677957Q1358.4584175431432 407.62549394674926 1363.2792309897145 407.62549394674926L1363.2792309897145 407.62549394674926L1367.966132951659 407.62549394674926L1367.966132951659 419.73491819944616L1352.815004976721 419.73491819944616Q1356.1054014561264 424.842684827361 1356.1054014561264 431.5956496949787L1356.1054014561264 431.5956496949787Q1356.1054014561264 439.70685962095575 1352.0497964931378 445.98156918633424Q1347.9941915301492 452.2562787517127 1340.7629713602923 455.6997169278351Q1333.5317511904354 459.14315510395744 1324.4257702358009 459.14315510395744L1324.4257702358009 459.14315510395744Q1318.5145347001244 459.14315510395744 1313.82763273818 457.89969131813547L1313.82763273818 457.89969131813547Q1311.8954813171335 459.83184273918187 1310.6520175313117 462.16572861410924Q1309.4276839575791 464.4996144890366 1309.4276839575791 466.7187190914266L1309.4276839575791 466.7187190914266Q1309.4276839575791 471.67344402262484 1312.718080436985 473.529074595313Q1316.0276071284802 475.3847051680011 1324.5788119325175 475.3847051680011L1324.5788119325175 475.3847051680011L1340.131674361337 475.3847051680011Q1353.503692611945 475.3847051680011 1359.9697042982193 480.49247179591595Q1366.4357159844935 485.58110821174114 1366.4357159844935 494.9549121356298L1366.4357159844935 494.9549121356298Q1366.4357159844935 502.79829909235286 1360.7923034180708 509.34083162698533Q1355.148890851648 515.8833641616178 1345.5837848068636 519.6711461553524Q1335.9995485499899 523.4589281490869 1324.8466349017717 523.4589281490869L1324.8466349017717 523.4589281490869ZM1325.80314550625 451.5675911164883Q1341.5090496317857 451.5675911164883 1341.5090496317857 432.9730249654276L1341.5090496317857 432.9730249654276Q1341.5090496317857 423.733132526166 1337.4534446687971 419.39057438183397Q1333.3787094937193 415.06714644959146 1325.267499567742 415.06714644959146L1325.267499567742 415.06714644959146Q1317.691935580273 415.06714644959146 1313.2728565875827 419.256662897207Q1308.8729078069819 423.4653095569121 1308.8729078069819 432.6860717840841L1308.8729078069819 432.6860717840841Q1308.8729078069819 441.3711880727482 1313.0624242545973 446.4598244885735Q1317.271070914302 451.5675911164883 1325.80314550625 451.5675911164883L1325.80314550625 451.5675911164883ZM1326.0900986875936 515.4624994956473Q1332.8430635552113 515.4624994956473 1338.8308199392463 513.4729574383322Q1344.818576323281 511.48341538101704 1348.5298374686572 507.54259169056587Q1352.2602288261232 503.62089821220434 1352.2602288261232 498.3983503117521L1352.2602288261232 498.3983503117521Q1352.2602288261232 492.20016159473187 1348.9507021346276 489.36889020547574Q1345.6411754431324 486.5376188162196 1336.1334600346167 486.5376188162196L1336.1334600346167 486.5376188162196L1319.8919099705731 486.5376188162196Q1314.3824088887773 486.5376188162196 1311.206793681909 485.8489311809951L1311.206793681909 485.8489311809951Q1305.5633811154862 492.04711989801535 1305.5633811154862 499.77572558220106L1305.5633811154862 499.77572558220106Q1305.5633811154862 507.48520105429714 1310.2502830774306 511.48341538101704Q1314.937185039375 515.4624994956473 1326.0900986875936 515.4624994956473L1326.0900986875936 515.4624994956473ZM1375.541696939128 465.6091667902316Q1375.541696939128 452.65801320559365 1388.4737203116765 446.53634533693173Q1401.4248738963142 440.39554725618024 1421.262903833197 439.9938128022993L1421.262903833197 439.9938128022993L1421.262903833197 436.12950996020646Q1421.262903833197 429.66349827393225 1419.8855285627483 425.9331069164664Q1418.508153292299 422.2218457710901 1415.141235964535 420.5001266830289Q1411.7551884246814 418.77840759496775 1405.5569997076614 418.77840759496775L1405.5569997076614 418.77840759496775Q1398.5362118707894 418.77840759496775 1392.9501899406355 420.7679496522829Q1387.3832982225713 422.7766219216876 1381.8737971407754 425.66528394721246L1381.8737971407754 425.66528394721246L1378.430358964653 418.5105846257138Q1380.2094686889827 416.98016765854834 1385.030282135554 414.51237029899397Q1389.8510955821253 412.02544272735 1396.2023259958623 410.0932913063036Q1402.5344261975097 408.18027009734675 1408.8665263991566 408.18027009734675L1408.8665263991566 408.18027009734675Q1418.642064776926 408.18027009734675 1424.3619981917072 410.85849978988637Q1430.081931606488 413.536729482426 1432.5497289660425 419.46709523019223Q1435.0366565376862 425.3974609779585 1435.0366565376862 435.306910840355L1435.0366565376862 435.306910840355L1435.0366565376862 479.51683097934796L1443.1669966757531 479.51683097934796L1443.1669966757531 485.58110821174114Q1440.4122461348552 486.2697958469656 1436.20359947515 486.9584834821901Q1432.0140830275345 487.6471711174146 1428.8384678206662 487.6471711174146L1428.8384678206662 487.6471711174146Q1424.9741649785733 487.6471711174146 1423.5967897081246 486.4802281799509Q1422.2194144376754 485.3132852424872 1422.2194144376754 481.31507091576736L1422.2194144376754 481.31507091576736L1422.2194144376754 476.7620804384501Q1418.0872886263287 480.89420624979687 1412.0995322422937 484.3376444259192Q1406.1117758582586 487.7810826020416 1398.5362118707894 487.7810826020416L1398.5362118707894 487.7810826020416Q1388.6267620083931 487.7810826020416 1382.0842294737604 482.0611491872605Q1375.541696939128 476.3603459845691 1375.541696939128 465.6091667902316L1375.541696939128 465.6091667902316ZM1404.4665776185561 478.42640889024256Q1408.043927279305 478.42640889024256 1412.7308292412495 476.2073042878526Q1417.398600991104 474.0073298975522 1421.262903833197 470.98475638740035L1421.262903833197 470.98475638740035L1421.262903833197 447.2824236084249Q1406.245687342886 447.2824236084249 1398.612732719148 451.9119349341005Q1390.9606478833202 456.52231604768656 1390.9606478833202 463.9639685505287L1390.9606478833202 463.9639685505287Q1390.9606478833202 471.38649084128133 1394.6145183924282 474.90644986576194Q1398.2683889015357 478.42640889024256 1404.4665776185561 478.42640889024256L1404.4665776185561 478.42640889024256ZM1462.8519849159193 478.273367193526L1462.8519849159193 383.5214267138929L1451.6990712677007 382.010139958817L1451.6990712677007 376.07977421105073L1473.8709870795105 373.4589351547798L1474.157940260854 373.4589351547798L1477.1805137710062 375.52499806045324L1477.1805137710062 478.42640889024256L1488.888203569822 479.51683097934796L1488.888203569822 486.2697958469656L1451.6990712677007 486.2697958469656L1451.6990712677007 479.51683097934796L1462.8519849159193 478.273367193526ZM1509.9696972925267 487.6471711174146Q1506.3923476317773 487.6471711174146 1503.7715085755062 485.16024354577064Q1501.1506695192352 482.69244618621633 1501.1506695192352 478.8281433441235L1501.1506695192352 478.8281433441235Q1501.1506695192352 474.5621060481497 1504.2497638777454 471.67344402262484Q1507.3488582362556 468.78478199709997 1511.4809840476023 468.78478199709997L1511.4809840476023 468.78478199709997Q1515.7470213435763 468.78478199709997 1518.0235165822346 471.3291002050126Q1520.3000118208934 473.8734184129252 1520.3000118208934 477.5846795583015L1520.3000118208934 477.5846795583015Q1520.3000118208934 482.13767003561884 1517.258308098652 484.8924205765167Q1514.2357345885002 487.6471711174146 1509.9696972925267 487.6471711174146L1509.9696972925267 487.6471711174146ZM1533.5189883747853 448.52588739424687Q1533.5189883747853 437.10515077677445 1537.9954580037443 427.86525833751284Q1542.4719276327037 418.64449611034075 1551.2144345576362 413.19238566481374Q1559.9569414825692 407.75940543137625 1572.2194074319827 407.75940543137625L1572.2194074319827 407.75940543137625Q1578.149773179749 407.75940543137625 1582.4158104757225 408.86895773257123Q1586.6818477716965 409.95937982167663 1592.6122135194628 411.8915312427231L1592.6122135194628 411.8915312427231L1592.057437368865 433.1069364500546L1583.1044981109471 433.1069364500546L1580.081924600795 419.04623056422173Q1579.2401952688542 415.20105793421845 1569.5985683757117 415.20105793421845L1569.5985683757117 415.20105793421845Q1559.9569414825692 415.20105793421845 1554.3900497645045 422.98705425467284Q1548.8040278343506 430.75392036303765 1548.8040278343506 445.0824492181245L1548.8040278343506 445.0824492181245Q1548.8040278343506 461.3431294942578 1555.078737399729 469.8178134499367Q1561.3343167530184 478.273367193526 1571.3968083121313 478.273367193526L1571.3968083121313 478.273367193526Q1577.174132363181 478.273367193526 1582.3392896273645 476.4942574691961Q1587.504446891548 474.69601753277664 1591.2348382490136 472.2282201732223L1591.2348382490136 472.2282201732223L1593.8556773052846 477.7377212550181Q1590.1252859478186 481.58289388502135 1582.8940657779617 484.68198824353146Q1575.6628456081048 487.7810826020416 1568.221193105263 487.7810826020416L1568.221193105263 487.7810826020416Q1556.9343679724175 487.7810826020416 1549.1483716519629 482.69244618621633Q1541.3623753315087 477.5846795583015 1537.440681853147 468.7082611487417Q1533.5189883747853 459.83184273918187 1533.5189883747853 448.52588739424687L1533.5189883747853 448.52588739424687ZM1605.8311900733547 447.8371997590224Q1605.8311900733547 435.440822324982 1610.9198264891797 426.3539715824369Q1616.0275931170945 417.26712083989185 1624.349235376057 412.50369802958926Q1632.690007847109 407.75940543137625 1642.1977232556242 407.75940543137625L1642.1977232556242 407.75940543137625Q1659.5488256208632 407.75940543137625 1668.2913325457962 418.77840759496775Q1677.0338394707287 429.79740975855924 1677.0338394707287 447.70328827439545L1677.0338394707287 447.70328827439545Q1677.0338394707287 460.23357719306284 1671.9452030549037 469.3204279356079Q1666.8565666390782 478.42640889024256 1658.5157941680263 483.09418064009725Q1650.1750216969745 487.7810826020416 1640.6864365005486 487.7810826020416L1640.6864365005486 487.7810826020416Q1623.3162039232202 487.7810826020416 1614.5736969982872 476.7620804384501Q1605.8311900733547 465.7430782748586 1605.8311900733547 447.8371997590224L1605.8311900733547 447.8371997590224ZM1641.5090356204 479.93769564531846Q1651.0167510289157 479.93769564531846 1656.1053874447407 472.07517847650576Q1661.1940238605657 464.2317915197827 1661.1940238605657 448.81284057559037L1661.1940238605657 448.81284057559037Q1661.1940238605657 433.5086709039355 1656.5262521107115 424.5557316460175Q1651.8393501487667 415.6027923880994 1641.5090356204 415.6027923880994L1641.5090356204 415.6027923880994Q1632.0013202118844 415.6027923880994 1626.8361629477008 423.4653095569121Q1621.6710056835173 431.30869651363514 1621.6710056835173 446.74677766991704L1621.6710056835173 446.74677766991704Q1621.6710056835173 462.0318171294823 1626.4918191300885 470.98475638740035Q1631.3126325766598 479.93769564531846 1641.5090356204 479.93769564531846L1641.5090356204 479.93769564531846ZM1689.4302169047692 486.2697958469656L1689.4302169047692 479.51683097934796L1697.8475102241796 478.273367193526L1697.8475102241796 420.42360583467064L1687.918930149693 417.9558084751163L1687.918930149693 410.5141559722741L1707.623048601949 408.02722840063024L1710.0908459615034 409.82546833704964L1710.9325752934442 415.3349694188454L1710.779533596728 419.73491819944616Q1715.6003470432988 415.3349694188454 1723.9411195143507 411.6810989097378Q1732.281891985403 408.02722840063024 1738.8818151563037 408.02722840063024L1738.8818151563037 408.02722840063024Q1746.323467659146 408.02722840063024 1750.8764581364635 410.5141559722741Q1755.4103184016913 413.00108354391807 1757.763334488708 418.22363144437026L1757.763334488708 418.22363144437026Q1762.163283269309 414.51237029899397 1770.0831910743905 411.27936445585686Q1778.003098879472 408.02722840063024 1784.8899752317166 408.02722840063024L1784.8899752317166 408.02722840063024Q1793.4220498236637 408.02722840063024 1798.2428632702354 411.27936445585686Q1803.0636767168066 414.51237029899397 1805.0723489862112 421.32272580288037Q1807.0618910435264 428.15221151885635 1807.0618910435264 439.5729481363288L1807.0618910435264 439.5729481363288L1807.0618910435264 478.273367193526L1816.9904711180125 479.51683097934796L1816.9904711180125 486.2697958469656L1784.201287596492 486.2697958469656L1784.201287596492 479.51683097934796L1792.7333621884395 478.273367193526L1792.7333621884395 439.9938128022993Q1792.7333621884395 431.9973841488596 1791.5664192509757 427.2530915506466Q1790.399476313512 422.48966874034403 1787.1664704703749 420.15578286541665Q1783.9334646272382 417.82189699048934 1777.8691873948446 417.82189699048934L1777.8691873948446 417.82189699048934Q1773.3161969175271 417.82189699048934 1768.227560501702 419.81143904780447Q1763.1197938737873 421.8009811051196 1759.5424442130384 424.5557316460175L1759.5424442130384 424.5557316460175Q1760.7859079988598 429.93132124318623 1760.7859079988598 439.8599013176723L1760.7859079988598 439.8599013176723L1760.7859079988598 478.273367193526L1770.5614463766296 479.51683097934796L1770.5614463766296 486.2697958469656L1737.2366169166007 486.2697958469656L1737.2366169166007 479.51683097934796L1746.323467659146 478.273367193526L1746.323467659146 439.70685962095575Q1746.323467659146 431.44260799826213 1745.2904362063096 426.9087477330344Q1744.2574047534727 422.3557572557171 1741.3687427279478 420.0792620170584Q1738.480080702423 417.82189699048934 1732.5497149546568 417.82189699048934L1732.5497149546568 417.82189699048934Q1727.5949900234582 417.82189699048934 1722.0089680933047 420.28969435004365Q1716.44207637524 422.7766219216876 1712.3099505638934 426.08614861318296L1712.3099505638934 426.08614861318296L1712.3099505638934 478.273367193526L1721.530712791065 479.51683097934796L1721.530712791065 486.2697958469656L1689.4302169047692 486.2697958469656Z " fill="#e5e5e5" transform="matrix(0.4815655478235629,0,0,0.4815655478235629,0,84.03761861963095)"/></g></svg>