<svg width="32" height="33" viewBox="0 0 32 33" fill="none" xmlns="http://www.w3.org/2000/svg">
<rect width="32" height="32" rx="5" fill="url(#paint0_linear_1_2)"/>
<g filter="url(#filter0_f_1_2)">
<path d="M14.7955 8.092C17.8981 8.092 20.2035 8.872 21.7115 10.432C23.2195 11.9747 23.9735 14.1933 23.9735 17.088C23.9735 18.9773 23.6008 20.6327 22.8555 22.054C22.1275 23.458 21.0615 24.55 19.6575 25.33C18.2535 26.11 16.5548 26.5 14.5615 26.5C14.3015 26.5 13.9548 26.4913 13.5215 26.474C13.0881 26.4567 12.6375 26.448 12.1695 26.448C11.7188 26.4307 11.3028 26.422 10.9215 26.422C10.3148 26.422 9.7168 26.4307 9.12747 26.448C8.53814 26.448 8.06147 26.4653 7.69747 26.5V25.98C8.2868 25.9453 8.7288 25.876 9.02347 25.772C9.33547 25.668 9.54347 25.46 9.64747 25.148C9.75147 24.836 9.80347 24.368 9.80347 23.744V10.848C9.80347 10.2067 9.75147 9.73867 9.64747 9.444C9.54347 9.132 9.33547 8.924 9.02347 8.82C8.7288 8.69867 8.2868 8.62933 7.69747 8.612V8.092C8.06147 8.10933 8.53814 8.13533 9.12747 8.17C9.7168 8.18733 10.2975 8.18733 10.8695 8.17C11.4761 8.15267 12.1608 8.13533 12.9235 8.118C13.6861 8.10067 14.3101 8.092 14.7955 8.092ZM14.1455 8.56C13.3481 8.56 12.8281 8.70733 12.5855 9.002C12.3428 9.29667 12.2215 9.89467 12.2215 10.796V23.796C12.2215 24.6973 12.3428 25.2953 12.5855 25.59C12.8455 25.8847 13.3741 26.032 14.1715 26.032C16.0608 26.032 17.5255 25.694 18.5655 25.018C19.6055 24.3247 20.3335 23.3193 20.7495 22.002C21.1655 20.6847 21.3735 19.0813 21.3735 17.192C21.3735 15.2507 21.1395 13.6473 20.6715 12.382C20.2208 11.0993 19.4668 10.146 18.4095 9.522C17.3695 8.88067 15.9481 8.56 14.1455 8.56Z" fill="#494949" fill-opacity="0.5"/>
</g>
<g filter="url(#filter1_di_1_2)">
<path d="M14.8881 8.008C17.7521 8.008 19.8801 8.728 21.2721 10.168C22.6641 11.592 23.3601 13.64 23.3601 16.312C23.3601 18.056 23.0161 19.584 22.3281 20.896C21.6561 22.192 20.6721 23.2 19.3761 23.92C18.0801 24.64 16.5121 25 14.6721 25C14.4321 25 14.1121 24.992 13.7121 24.976C13.3121 24.96 12.8961 24.952 12.4641 24.952C12.0481 24.936 11.6641 24.928 11.3121 24.928C10.7521 24.928 10.2001 24.936 9.65613 24.952C9.11213 24.952 8.67213 24.968 8.33613 25V24.52C8.88013 24.488 9.28813 24.424 9.56013 24.328C9.84813 24.232 10.0401 24.04 10.1361 23.752C10.2321 23.464 10.2801 23.032 10.2801 22.456V10.552C10.2801 9.96 10.2321 9.528 10.1361 9.256C10.0401 8.968 9.84813 8.776 9.56013 8.68C9.28813 8.568 8.88013 8.504 8.33613 8.488V8.008C8.67213 8.024 9.11213 8.048 9.65613 8.08C10.2001 8.096 10.7361 8.096 11.2641 8.08C11.8241 8.064 12.4561 8.048 13.1601 8.032C13.8641 8.016 14.4401 8.008 14.8881 8.008ZM14.2881 8.44C13.5521 8.44 13.0721 8.576 12.8481 8.848C12.6241 9.12 12.5121 9.672 12.5121 10.504V22.504C12.5121 23.336 12.6241 23.888 12.8481 24.16C13.0881 24.432 13.5761 24.568 14.3121 24.568C16.0561 24.568 17.4081 24.256 18.3681 23.632C19.3281 22.992 20.0001 22.064 20.3841 20.848C20.7681 19.632 20.9601 18.152 20.9601 16.408C20.9601 14.616 20.7441 13.136 20.3121 11.968C19.8961 10.784 19.2001 9.904 18.2241 9.328C17.2641 8.736 15.9521 8.44 14.2881 8.44Z" fill="white"/>
</g>
<defs>
<filter id="filter0_f_1_2" x="6.69747" y="7.092" width="18.276" height="20.408" filterUnits="userSpaceOnUse" color-interpolation-filters="sRGB">
<feFlood flood-opacity="0" result="BackgroundImageFix"/>
<feBlend mode="normal" in="SourceGraphic" in2="BackgroundImageFix" result="shape"/>
<feGaussianBlur stdDeviation="0.5" result="effect1_foregroundBlur_1_2"/>
</filter>
<filter id="filter1_di_1_2" x="4.33612" y="7.508" width="23.024" height="25.492" filterUnits="userSpaceOnUse" color-interpolation-filters="sRGB">
<feFlood flood-opacity="0" result="BackgroundImageFix"/>
<feColorMatrix in="SourceAlpha" type="matrix" values="0 0 0 0 0 0 0 0 0 0 0 0 0 0 0 0 0 0 127 0" result="hardAlpha"/>
<feOffset dy="4"/>
<feGaussianBlur stdDeviation="2"/>
<feComposite in2="hardAlpha" operator="out"/>
<feColorMatrix type="matrix" values="0 0 0 0 0 0 0 0 0 0 0 0 0 0 0 0 0 0 0.25 0"/>
<feBlend mode="normal" in2="BackgroundImageFix" result="effect1_dropShadow_1_2"/>
<feBlend mode="normal" in="SourceGraphic" in2="effect1_dropShadow_1_2" result="shape"/>
<feColorMatrix in="SourceAlpha" type="matrix" values="0 0 0 0 0 0 0 0 0 0 0 0 0 0 0 0 0 0 127 0" result="hardAlpha"/>
<feOffset dy="-0.5"/>
<feGaussianBlur stdDeviation="2"/>
<feComposite in2="hardAlpha" operator="arithmetic" k2="-1" k3="1"/>
<feColorMatrix type="matrix" values="0 0 0 0 1 0 0 0 0 1 0 0 0 0 1 0 0 0 0.25 0"/>
<feBlend mode="normal" in2="shape" result="effect2_innerShadow_1_2"/>
</filter>
<linearGradient id="paint0_linear_1_2" x1="31" y1="1.5" x2="1.5" y2="30.5" gradientUnits="userSpaceOnUse">
<stop stop-color="#24C921"/>
<stop offset="0.85" stop-color="#507AE7"/>
</linearGradient>
</defs>
</svg>
