<?xml version="1.0" encoding="utf-8"?>
<!-- Generator: Adobe Illustrator 19.1.0, SVG Export Plug-In . SVG Version: 6.00 Build 0)  -->
<svg version="1.1" id="Layer_1" xmlns="http://www.w3.org/2000/svg" xmlns:xlink="http://www.w3.org/1999/xlink" x="0px" y="0px"
	 viewBox="0 0 156.7 21.1" style="enable-background:new 0 0 156.7 21.1;" xml:space="preserve">
<style type="text/css">
	.st0{fill:#B71237;}
	.st1{fill:#004270;}
	.st2{fill:#770C29;}
	.st3{fill:#09396D;}
</style>
<path class="st0" d="M27.4,10.1h-6.4l-6.5,9.7c-0.2,0.3-0.2,0.9,0.4,0.9h4.9c0.4,0,0.6-0.1,0.8-0.5L27.4,10.1z"/>
<path class="st1" d="M33.5,19.8L27.9,11l-3.3,5l2.7,4.3c0.2,0.3,0.4,0.5,0.8,0.5H33C33.7,20.7,33.6,20.1,33.5,19.8"/>
<path class="st1" d="M32.9,0.3H28c-0.3,0-0.6,0.1-0.8,0.4c0,0-0.1,0.1-0.1,0.1l-2.3,3.5l3.1,5l5.4-8.1C33.6,0.8,33.4,0.3,32.9,0.3"
	/>
<path class="st2" d="M21.5,0.8c0-0.1-0.1-0.1-0.2-0.2c-0.1-0.1-0.2-0.2-0.3-0.2c-0.1,0-0.2-0.1-0.3-0.1h-5c-0.3,0-0.6,0.2-0.6,0.6
	c0,0.1,0.1,0.3,0.1,0.3l5.7,9h6.4L21.5,0.8z"/>
<path class="st3" d="M12.6,19.1c0,0.3,0,0.6,0,0.8c0,0.2-0.1,0.4-0.1,0.5c-0.1,0.1-0.1,0.2-0.2,0.3c-0.1,0.1-0.2,0.1-0.3,0.1H1.3
	c-0.4,0-0.7-0.1-0.9-0.3c-0.2-0.2-0.4-0.5-0.4-1V1.7c0-0.5,0.1-0.8,0.4-1c0.2-0.2,0.6-0.3,0.9-0.3h10.6c0.1,0,0.2,0,0.3,0.1
	c0.1,0.1,0.1,0.1,0.2,0.3c0.1,0.1,0.1,0.3,0.1,0.5c0,0.2,0,0.5,0,0.8c0,0.3,0,0.5,0,0.7c0,0.2-0.1,0.4-0.1,0.5
	c-0.1,0.1-0.1,0.2-0.2,0.3c-0.1,0.1-0.2,0.1-0.3,0.1H4.3v5h6.4c0.1,0,0.2,0,0.3,0.1c0.1,0.1,0.1,0.1,0.2,0.3
	c0.1,0.1,0.1,0.3,0.1,0.5c0,0.2,0,0.5,0,0.7c0,0.3,0,0.6,0,0.8c0,0.2-0.1,0.4-0.1,0.5c-0.1,0.1-0.1,0.2-0.2,0.3
	c-0.1,0.1-0.2,0.1-0.3,0.1H4.3v5.8H12c0.1,0,0.2,0,0.3,0.1c0.1,0.1,0.2,0.1,0.2,0.3c0.1,0.1,0.1,0.3,0.1,0.5
	C12.6,18.6,12.6,18.8,12.6,19.1"/>
<path class="st3" d="M50.2,17.7c0,0.3,0,0.5,0,0.7c0,0.2,0,0.3-0.1,0.5c0,0.1-0.1,0.2-0.1,0.3c-0.1,0.1-0.1,0.2-0.3,0.3
	c-0.1,0.1-0.4,0.3-0.7,0.5c-0.3,0.2-0.8,0.4-1.3,0.5c-0.5,0.2-1.1,0.3-1.7,0.4c-0.6,0.1-1.3,0.2-2.1,0.2c-1.5,0-2.8-0.2-4-0.6
	c-1.2-0.4-2.2-1.1-3-1.9c-0.8-0.9-1.5-1.9-1.9-3.2c-0.4-1.3-0.7-2.8-0.7-4.5c0-1.7,0.2-3.3,0.7-4.6c0.5-1.3,1.2-2.5,2-3.4
	c0.9-0.9,1.9-1.6,3.1-2.1c1.2-0.5,2.6-0.7,4-0.7c0.6,0,1.2,0,1.7,0.1c0.5,0.1,1.1,0.2,1.5,0.4c0.5,0.2,0.9,0.3,1.3,0.5
	c0.4,0.2,0.6,0.4,0.8,0.5c0.1,0.1,0.3,0.3,0.3,0.4C50,2,50,2.1,50.1,2.3c0,0.1,0.1,0.3,0.1,0.5c0,0.2,0,0.4,0,0.7c0,0.3,0,0.6,0,0.8
	c0,0.2-0.1,0.4-0.1,0.5C50,5,49.9,5.1,49.8,5.2c-0.1,0.1-0.2,0.1-0.3,0.1c-0.2,0-0.4-0.1-0.6-0.3c-0.3-0.2-0.6-0.4-1-0.6
	c-0.4-0.2-0.9-0.4-1.4-0.6c-0.6-0.2-1.2-0.3-2-0.3c-0.8,0-1.6,0.2-2.3,0.5c-0.7,0.3-1.2,0.8-1.7,1.4c-0.5,0.6-0.8,1.4-1.1,2.2
	c-0.2,0.9-0.4,1.9-0.4,3c0,1.2,0.1,2.2,0.4,3.1c0.3,0.9,0.6,1.6,1.1,2.2c0.5,0.6,1.1,1,1.7,1.3c0.7,0.3,1.4,0.4,2.3,0.4
	c0.8,0,1.4-0.1,2-0.3c0.6-0.2,1-0.4,1.4-0.6c0.4-0.2,0.7-0.4,1-0.6c0.3-0.2,0.5-0.3,0.6-0.3c0.1,0,0.2,0,0.3,0.1
	c0.1,0,0.1,0.1,0.2,0.3c0,0.1,0.1,0.3,0.1,0.5C50.2,17,50.2,17.3,50.2,17.7"/>
<path class="st3" d="M70.4,20.2c0,0.1,0,0.2-0.1,0.3c-0.1,0.1-0.2,0.1-0.4,0.2c-0.2,0.1-0.4,0.1-0.7,0.1c-0.3,0-0.6,0-1,0
	c-0.4,0-0.8,0-1.1,0c-0.3,0-0.5-0.1-0.7-0.1c-0.2-0.1-0.3-0.1-0.3-0.2c-0.1-0.1-0.1-0.2-0.1-0.3v-8.2h-8v8.2c0,0.1,0,0.2-0.1,0.3
	c-0.1,0.1-0.2,0.1-0.3,0.2c-0.2,0.1-0.4,0.1-0.7,0.1c-0.3,0-0.6,0-1.1,0c-0.4,0-0.8,0-1,0c-0.3,0-0.5-0.1-0.7-0.1
	c-0.2-0.1-0.3-0.1-0.4-0.2c-0.1-0.1-0.1-0.2-0.1-0.3V0.9c0-0.1,0-0.2,0.1-0.3c0.1-0.1,0.2-0.2,0.4-0.2c0.2-0.1,0.4-0.1,0.7-0.1
	c0.3,0,0.6-0.1,1-0.1c0.4,0,0.8,0,1.1,0.1c0.3,0,0.5,0.1,0.7,0.1c0.2,0,0.3,0.1,0.3,0.2c0.1,0.1,0.1,0.2,0.1,0.3v7.5h8V0.9
	c0-0.1,0-0.2,0.1-0.3c0.1-0.1,0.2-0.2,0.3-0.2c0.2-0.1,0.4-0.1,0.7-0.1c0.3,0,0.6-0.1,1.1-0.1c0.4,0,0.8,0,1,0.1
	c0.3,0,0.5,0.1,0.7,0.1c0.2,0,0.3,0.1,0.4,0.2c0.1,0.1,0.1,0.2,0.1,0.3V20.2z"/>
<path class="st3" d="M92.6,19.2c0.1,0.4,0.2,0.7,0.2,0.9c0,0.2,0,0.4-0.1,0.5c-0.1,0.1-0.3,0.2-0.6,0.2c-0.3,0-0.7,0-1.3,0
	c-0.6,0-1,0-1.3,0c-0.3,0-0.6-0.1-0.7-0.1c-0.2,0-0.3-0.1-0.3-0.2c-0.1-0.1-0.1-0.2-0.2-0.3l-1.4-4.1h-8l-1.3,4
	c0,0.1-0.1,0.3-0.2,0.4c-0.1,0.1-0.2,0.2-0.3,0.2c-0.2,0.1-0.4,0.1-0.7,0.1c-0.3,0-0.7,0-1.1,0c-0.5,0-0.9,0-1.2,0
	c-0.3,0-0.5-0.1-0.6-0.2c-0.1-0.1-0.1-0.3-0.1-0.5c0-0.2,0.1-0.5,0.2-0.9l6.6-18.1c0.1-0.2,0.1-0.3,0.2-0.4c0.1-0.1,0.2-0.2,0.4-0.3
	c0.2-0.1,0.5-0.1,0.8-0.1c0.3,0,0.8,0,1.3,0c0.6,0,1.2,0,1.5,0c0.4,0,0.7,0.1,0.9,0.1c0.2,0.1,0.4,0.1,0.5,0.3
	C85.9,0.8,86,0.9,86,1.1L92.6,19.2z M82.8,4.2L82.8,4.2l-3,8.7h6L82.8,4.2z"/>
<path class="st3" d="M112.6,19.3c0,0.2,0,0.5-0.1,0.6c-0.1,0.2-0.2,0.3-0.4,0.5c-0.1,0.1-0.3,0.2-0.5,0.3c-0.2,0.1-0.4,0.1-0.6,0.1
	h-1.8c-0.4,0-0.7,0-1-0.1c-0.3-0.1-0.5-0.2-0.8-0.4c-0.2-0.2-0.5-0.5-0.7-0.8c-0.2-0.3-0.5-0.8-0.7-1.3l-5.3-9.5
	c-0.3-0.6-0.6-1.2-0.9-1.8c-0.3-0.7-0.6-1.3-0.9-1.9h0c0,0.8,0.1,1.5,0.1,2.3c0,0.8,0,1.5,0,2.3v10.7c0,0.1,0,0.2-0.1,0.3
	c-0.1,0.1-0.2,0.2-0.3,0.2c-0.1,0.1-0.3,0.1-0.6,0.1c-0.3,0-0.6,0-1,0c-0.4,0-0.7,0-1,0c-0.3,0-0.4-0.1-0.6-0.1
	c-0.1-0.1-0.2-0.1-0.3-0.2C95,20.4,95,20.3,95,20.2V1.8c0-0.5,0.1-0.9,0.5-1.1c0.3-0.2,0.7-0.4,1.1-0.4h2.3c0.4,0,0.8,0,1.1,0.1
	c0.3,0.1,0.5,0.2,0.8,0.3c0.2,0.2,0.4,0.4,0.6,0.7c0.2,0.3,0.4,0.6,0.6,1l4.2,7.5c0.2,0.5,0.5,0.9,0.7,1.3c0.2,0.4,0.5,0.9,0.7,1.3
	c0.2,0.4,0.4,0.9,0.6,1.3c0.2,0.4,0.4,0.8,0.6,1.3h0c0-0.7-0.1-1.5-0.1-2.3c0-0.8,0-1.6,0-2.3V1c0-0.1,0-0.2,0.1-0.3
	c0.1-0.1,0.2-0.2,0.3-0.2c0.2-0.1,0.4-0.1,0.6-0.1c0.3,0,0.6,0,1,0c0.4,0,0.7,0,0.9,0c0.2,0,0.4,0.1,0.6,0.1
	c0.1,0.1,0.2,0.1,0.3,0.2c0.1,0.1,0.1,0.2,0.1,0.3V19.3z"/>
<path class="st3" d="M134.4,3.5c0,0.3,0,0.6,0,0.8c0,0.2-0.1,0.4-0.1,0.5c0,0.1-0.1,0.2-0.2,0.3c-0.1,0.1-0.2,0.1-0.3,0.1
	c-0.1,0-0.4-0.1-0.7-0.3c-0.3-0.2-0.7-0.4-1.3-0.6c-0.5-0.2-1.2-0.4-1.9-0.6c-0.7-0.2-1.6-0.3-2.5-0.3c-1,0-2,0.2-2.8,0.5
	c-0.8,0.3-1.5,0.8-2.1,1.4c-0.6,0.6-1,1.4-1.4,2.3c-0.3,0.9-0.5,1.8-0.5,2.9c0,1.2,0.2,2.2,0.5,3.1c0.3,0.9,0.8,1.6,1.4,2.2
	c0.6,0.6,1.3,1.1,2.1,1.4c0.8,0.3,1.7,0.5,2.7,0.5c0.5,0,1-0.1,1.4-0.2c0.5-0.1,0.9-0.3,1.3-0.5v-4.7h-4c-0.2,0-0.4-0.1-0.5-0.4
	c-0.1-0.2-0.2-0.6-0.2-1.2c0-0.3,0-0.5,0-0.7c0-0.2,0.1-0.4,0.1-0.5c0.1-0.1,0.1-0.2,0.2-0.3c0.1-0.1,0.2-0.1,0.3-0.1h7.2
	c0.2,0,0.3,0,0.5,0.1c0.1,0.1,0.3,0.1,0.4,0.3c0.1,0.1,0.2,0.3,0.2,0.4c0.1,0.2,0.1,0.4,0.1,0.6v8.1c0,0.3-0.1,0.6-0.2,0.8
	c-0.1,0.2-0.4,0.4-0.7,0.6c-0.4,0.1-0.8,0.3-1.3,0.4c-0.5,0.1-1.1,0.3-1.6,0.4c-0.6,0.1-1.1,0.2-1.7,0.2c-0.6,0.1-1.2,0.1-1.7,0.1
	c-1.7,0-3.2-0.2-4.6-0.7c-1.3-0.5-2.5-1.1-3.4-2c-0.9-0.9-1.6-2-2.1-3.2c-0.5-1.3-0.7-2.7-0.7-4.3c0-1.7,0.3-3.2,0.8-4.5
	c0.5-1.3,1.3-2.5,2.2-3.4c1-0.9,2.1-1.6,3.5-2.1c1.4-0.5,2.9-0.7,4.6-0.7c0.9,0,1.8,0.1,2.5,0.2c0.8,0.1,1.4,0.3,2,0.4
	c0.6,0.2,1,0.4,1.4,0.6c0.4,0.2,0.6,0.4,0.8,0.5c0.1,0.1,0.3,0.4,0.3,0.6C134.4,2.6,134.4,3,134.4,3.5"/>
<path class="st3" d="M150.9,19.1c0,0.3,0,0.6,0,0.8c0,0.2-0.1,0.4-0.1,0.5c-0.1,0.1-0.1,0.2-0.2,0.3c-0.1,0.1-0.2,0.1-0.3,0.1h-10.7
	c-0.4,0-0.7-0.1-0.9-0.3c-0.2-0.2-0.4-0.5-0.4-1V1.7c0-0.5,0.1-0.8,0.4-1c0.2-0.2,0.5-0.3,0.9-0.3h10.6c0.1,0,0.2,0,0.3,0.1
	c0.1,0.1,0.1,0.1,0.2,0.3c0.1,0.1,0.1,0.3,0.1,0.5c0,0.2,0,0.5,0,0.8c0,0.3,0,0.5,0,0.7c0,0.2-0.1,0.4-0.1,0.5
	c-0.1,0.1-0.1,0.2-0.2,0.3c-0.1,0.1-0.2,0.1-0.3,0.1h-7.6v5h6.4c0.1,0,0.2,0,0.3,0.1c0.1,0.1,0.2,0.1,0.2,0.3
	c0.1,0.1,0.1,0.3,0.1,0.5c0,0.2,0,0.5,0,0.7c0,0.3,0,0.6,0,0.8c0,0.2-0.1,0.4-0.1,0.5c-0.1,0.1-0.1,0.2-0.2,0.3
	c-0.1,0.1-0.2,0.1-0.3,0.1h-6.4v5.8h7.7c0.1,0,0.2,0,0.3,0.1c0.1,0.1,0.1,0.1,0.2,0.3c0.1,0.1,0.1,0.3,0.1,0.5
	C150.8,18.6,150.9,18.8,150.9,19.1"/>
<polygon class="st3" points="153.5,0.7 153.5,2.5 153.2,2.5 153.2,0.7 152.6,0.7 152.6,0.4 154.1,0.4 154.1,0.7 "/>
<path class="st3" d="M155.3,2.5l-0.4-1.2c0-0.1-0.1-0.3-0.1-0.3h0c0,0,0,0.2,0,0.3l-0.1,1.2h-0.3l0.3-2h0.3l0.5,1.3
	c0.1,0.2,0.1,0.4,0.1,0.4h0c0,0,0.1-0.2,0.1-0.4l0.5-1.3h0.3l0.3,2h-0.4l-0.2-1.2c0-0.1,0-0.3,0-0.3h0c0,0,0,0.1-0.1,0.3l-0.4,1.2
	H155.3z"/>
</svg>
